# xmcd
#
# Track frame offsets:
#	150
#	7552
#	17502
#	26079
#	36729
#	44309
#	52961
#	61962
#	85699
#	94051
#	107198
#	118485
#	129271
#	143836
#	152145
#	164358
#	174768
#	192589
#	199848
#	205602
#
# Disc length: 2875 seconds
#
# Revision: 0
# Processed by: cddbd v1.5.1PL2 Copyright (c) Steve Scherf et al.
# Submitted via: EasyCDDAExtractor 9.1.0.1
#
DISCID=080b3914
DTITLE=Various Artist - The Singing Cowboys
DYEAR=1945
DGENRE=country
TTITLE0=Gene Autry - Back in the Saddel Again
TTITLE1=Bob Nolan - Tumbling Tumbleweeds
TTITLE2=Roy Lanham - Stay a Little Longer
TTITLE3=Gene Autry - Don't Fence Me In
TTITLE4=Eddie Dean - We're Brandin' Tofay
TTITLE5=Rex Allen - Way Out West is Calling
TTITLE6=Sons of the Pioneers - Cool Water
TTITLE7=Roy Rogers - Movie Trail Meledy
TTITLE8=Gene Autry - Deep in the Heart of Texas
TTITLE9=Jonny Bond - Birmingham Jail
TTITLE10=Sons of the Pioneers - Whoopee Ti Yi Yo
TTITLE11=Rex Allen - The Arizona Cowboy
TTITLE12=Gene Autry - South of the Border
TTITLE13=Eddie Dean - Ridin' Down that Utah Trail
TTITLE14=Roy Rogers - Happy, Gene and Me
TTITLE15=Jonny Bond - The Last Roundup
TTITLE16=Rex Allen - The Streets of Laredo
TTITLE17=Eddie Dean - The Road to Sana Fe
TTITLE18=Gene Autry - Home on the Range
TTITLE19=Roy Rogers - Happy Trails
EXTD=
EXTT0=
EXTT1=
EXTT2=
EXTT3=
EXTT4=
EXTT5=
EXTT6=
EXTT7=
EXTT8=
EXTT9=
EXTT10=
EXTT11=
EXTT12=
EXTT13=
EXTT14=
EXTT15=
EXTT16=
EXTT17=
EXTT18=
EXTT19=
PLAYORDER=
